<svg width="66" height="60" viewBox="0 0 66 60" fill="none" xmlns="http://www.w3.org/2000/svg">
<path d="M20.0846 14.0439C20.0846 12.9394 20.98 12.0439 22.0846 12.0439H45.2611C46.3656 12.0439 47.2611 12.9394 47.2611 14.0439V22.2662C47.2611 23.3707 46.3656 24.2662 45.2611 24.2662H22.0846C20.98 24.2662 20.0846 23.3707 20.0846 22.2662V14.0439Z" fill="#D8E6E7"/>
<rect x="54.6727" y="21.8218" width="23.2222" height="42" rx="2" transform="rotate(90 54.6727 21.8218)" fill="#534546"/>
<path d="M20.0844 36.4883H47.2608V54.0438C47.2608 55.1484 46.3654 56.0438 45.2608 56.0438H22.0844C20.9798 56.0438 20.0844 55.1484 20.0844 54.0438V36.4883Z" fill="#D8E6E7"/>
<rect x="47.2606" y="26.7104" width="3.70588" height="3.66667" rx="1.83333" fill="#F5574F"/>
<path fill-rule="evenodd" clip-rule="evenodd" d="M25.0253 41.3775C25.0253 40.7025 25.5783 40.1553 26.2606 40.1553H41.7017C42.384 40.1553 42.937 40.7025 42.937 41.3775C42.937 42.0525 42.384 42.5997 41.7017 42.5997H26.2606C25.5783 42.5997 25.0253 42.0525 25.0253 41.3775Z" fill="#534546"/>
<path fill-rule="evenodd" clip-rule="evenodd" d="M25.0253 46.2662C25.0253 45.5912 25.5783 45.0439 26.2606 45.0439H37.3782C38.0604 45.0439 38.6135 45.5912 38.6135 46.2662C38.6135 46.9412 38.0604 47.4884 37.3782 47.4884H26.2606C25.5783 47.4884 25.0253 46.9412 25.0253 46.2662Z" fill="#534546"/>
<path fill-rule="evenodd" clip-rule="evenodd" d="M25.0253 51.1553C25.0253 50.4803 25.5783 49.9331 26.2606 49.9331H32.437C33.1193 49.9331 33.6723 50.4803 33.6723 51.1553C33.6723 51.8303 33.1193 52.3775 32.437 52.3775H26.2606C25.5783 52.3775 25.0253 51.8303 25.0253 51.1553Z" fill="#534546"/>
</svg>
